<?xml version="1.0" encoding="utf-8" standalone="no"?>
<!DOCTYPE svg PUBLIC "-//W3C//DTD SVG 1.1//EN"
  "http://www.w3.org/Graphics/SVG/1.1/DTD/svg11.dtd">
<!-- Created with matplotlib (https://matplotlib.org/) -->
<svg height="248.518125pt" version="1.1" viewBox="0 0 391.108808 248.518125" width="391.108808pt" xmlns="http://www.w3.org/2000/svg" xmlns:xlink="http://www.w3.org/1999/xlink">
 <defs>
  <style type="text/css">
*{stroke-linecap:butt;stroke-linejoin:round;}
  </style>
 </defs>
 <g id="figure_1">
  <g id="patch_1">
   <path d="M 0 248.518125 
L 391.108808 248.518125 
L 391.108808 0 
L 0 0 
z
" style="fill:#ffffff;"/>
  </g>
  <g id="axes_1">
   <g id="patch_2">
    <path d="M 44.845313 224.64 
L 197.027131 224.64 
L 197.027131 7.2 
L 44.845313 7.2 
z
" style="fill:#ffffff;"/>
   </g>
   <g id="matplotlib.axis_1">
    <g id="xtick_1">
     <g id="line2d_1">
      <defs>
       <path d="M 0 0 
L 0 3.5 
" id="me7131772fd" style="stroke:#000000;stroke-width:0.8;"/>
      </defs>
      <g>
       <use style="stroke:#000000;stroke-width:0.8;" x="51.774842" xlink:href="#me7131772fd" y="224.64"/>
      </g>
     </g>
     <g id="text_1">
      <!-- 0 -->
      <defs>
       <path d="M 31.78125 66.40625 
Q 24.171875 66.40625 20.328125 58.90625 
Q 16.5 51.421875 16.5 36.375 
Q 16.5 21.390625 20.328125 13.890625 
Q 24.171875 6.390625 31.78125 6.390625 
Q 39.453125 6.390625 43.28125 13.890625 
Q 47.125 21.390625 47.125 36.375 
Q 47.125 51.421875 43.28125 58.90625 
Q 39.453125 66.40625 31.78125 66.40625 
z
M 31.78125 74.21875 
Q 44.046875 74.21875 50.515625 64.515625 
Q 56.984375 54.828125 56.984375 36.375 
Q 56.984375 17.96875 50.515625 8.265625 
Q 44.046875 -1.421875 31.78125 -1.421875 
Q 19.53125 -1.421875 13.0625 8.265625 
Q 6.59375 17.96875 6.59375 36.375 
Q 6.59375 54.828125 13.0625 64.515625 
Q 19.53125 74.21875 31.78125 74.21875 
z
" id="DejaVuSans-48"/>
      </defs>
      <g transform="translate(48.593592 239.238437)scale(0.1 -0.1)">
       <use xlink:href="#DejaVuSans-48"/>
      </g>
     </g>
    </g>
    <g id="xtick_2">
     <g id="line2d_2">
      <g>
       <use style="stroke:#000000;stroke-width:0.8;" x="86.393194" xlink:href="#me7131772fd" y="224.64"/>
      </g>
     </g>
     <g id="text_2">
      <!-- 250 -->
      <defs>
       <path d="M 19.1875 8.296875 
L 53.609375 8.296875 
L 53.609375 0 
L 7.328125 0 
L 7.328125 8.296875 
Q 12.9375 14.109375 22.625 23.890625 
Q 32.328125 33.6875 34.8125 36.53125 
Q 39.546875 41.84375 41.421875 45.53125 
Q 43.3125 49.21875 43.3125 52.78125 
Q 43.3125 58.59375 39.234375 62.25 
Q 35.15625 65.921875 28.609375 65.921875 
Q 23.96875 65.921875 18.8125 64.3125 
Q 13.671875 62.703125 7.8125 59.421875 
L 7.8125 69.390625 
Q 13.765625 71.78125 18.9375 73 
Q 24.125 74.21875 28.421875 74.21875 
Q 39.75 74.21875 46.484375 68.546875 
Q 53.21875 62.890625 53.21875 53.421875 
Q 53.21875 48.921875 51.53125 44.890625 
Q 49.859375 40.875 45.40625 35.40625 
Q 44.1875 33.984375 37.640625 27.21875 
Q 31.109375 20.453125 19.1875 8.296875 
z
" id="DejaVuSans-50"/>
       <path d="M 10.796875 72.90625 
L 49.515625 72.90625 
L 49.515625 64.59375 
L 19.828125 64.59375 
L 19.828125 46.734375 
Q 21.96875 47.46875 24.109375 47.828125 
Q 26.265625 48.1875 28.421875 48.1875 
Q 40.625 48.1875 47.75 41.5 
Q 54.890625 34.8125 54.890625 23.390625 
Q 54.890625 11.625 47.5625 5.09375 
Q 40.234375 -1.421875 26.90625 -1.421875 
Q 22.3125 -1.421875 17.546875 -0.640625 
Q 12.796875 0.140625 7.71875 1.703125 
L 7.71875 11.625 
Q 12.109375 9.234375 16.796875 8.0625 
Q 21.484375 6.890625 26.703125 6.890625 
Q 35.15625 6.890625 40.078125 11.328125 
Q 45.015625 15.765625 45.015625 23.390625 
Q 45.015625 31 40.078125 35.4375 
Q 35.15625 39.890625 26.703125 39.890625 
Q 22.75 39.890625 18.8125 39.015625 
Q 14.890625 38.140625 10.796875 36.28125 
z
" id="DejaVuSans-53"/>
      </defs>
      <g transform="translate(76.849444 239.238437)scale(0.1 -0.1)">
       <use xlink:href="#DejaVuSans-50"/>
       <use x="63.623047" xlink:href="#DejaVuSans-53"/>
       <use x="127.246094" xlink:href="#DejaVuSans-48"/>
      </g>
     </g>
    </g>
    <g id="xtick_3">
     <g id="line2d_3">
      <g>
       <use style="stroke:#000000;stroke-width:0.8;" x="121.011546" xlink:href="#me7131772fd" y="224.64"/>
      </g>
     </g>
     <g id="text_3">
      <!-- 500 -->
      <g transform="translate(111.467796 239.238437)scale(0.1 -0.1)">
       <use xlink:href="#DejaVuSans-53"/>
       <use x="63.623047" xlink:href="#DejaVuSans-48"/>
       <use x="127.246094" xlink:href="#DejaVuSans-48"/>
      </g>
     </g>
    </g>
    <g id="xtick_4">
     <g id="line2d_4">
      <g>
       <use style="stroke:#000000;stroke-width:0.8;" x="155.629897" xlink:href="#me7131772fd" y="224.64"/>
      </g>
     </g>
     <g id="text_4">
      <!-- 750 -->
      <defs>
       <path d="M 8.203125 72.90625 
L 55.078125 72.90625 
L 55.078125 68.703125 
L 28.609375 0 
L 18.3125 0 
L 43.21875 64.59375 
L 8.203125 64.59375 
z
" id="DejaVuSans-55"/>
      </defs>
      <g transform="translate(146.086147 239.238437)scale(0.1 -0.1)">
       <use xlink:href="#DejaVuSans-55"/>
       <use x="63.623047" xlink:href="#DejaVuSans-53"/>
       <use x="127.246094" xlink:href="#DejaVuSans-48"/>
      </g>
     </g>
    </g>
    <g id="xtick_5">
     <g id="line2d_5">
      <g>
       <use style="stroke:#000000;stroke-width:0.8;" x="190.248249" xlink:href="#me7131772fd" y="224.64"/>
      </g>
     </g>
     <g id="text_5">
      <!-- 1000 -->
      <defs>
       <path d="M 12.40625 8.296875 
L 28.515625 8.296875 
L 28.515625 63.921875 
L 10.984375 60.40625 
L 10.984375 69.390625 
L 28.421875 72.90625 
L 38.28125 72.90625 
L 38.28125 8.296875 
L 54.390625 8.296875 
L 54.390625 0 
L 12.40625 0 
z
" id="DejaVuSans-49"/>
      </defs>
      <g transform="translate(177.523249 239.238437)scale(0.1 -0.1)">
       <use xlink:href="#DejaVuSans-49"/>
       <use x="63.623047" xlink:href="#DejaVuSans-48"/>
       <use x="127.246094" xlink:href="#DejaVuSans-48"/>
       <use x="190.869141" xlink:href="#DejaVuSans-48"/>
      </g>
     </g>
    </g>
   </g>
   <g id="matplotlib.axis_2">
    <g id="ytick_1">
     <g id="line2d_6">
      <defs>
       <path d="M 0 0 
L -3.5 0 
" id="m2714d05f68" style="stroke:#000000;stroke-width:0.8;"/>
      </defs>
      <g>
       <use style="stroke:#000000;stroke-width:0.8;" x="44.845313" xlink:href="#m2714d05f68" y="216.981604"/>
      </g>
     </g>
     <g id="text_6">
      <!-- −10.0 -->
      <defs>
       <path d="M 10.59375 35.5 
L 73.1875 35.5 
L 73.1875 27.203125 
L 10.59375 27.203125 
z
" id="DejaVuSans-8722"/>
       <path d="M 10.6875 12.40625 
L 21 12.40625 
L 21 0 
L 10.6875 0 
z
" id="DejaVuSans-46"/>
      </defs>
      <g transform="translate(7.2 220.780822)scale(0.1 -0.1)">
       <use xlink:href="#DejaVuSans-8722"/>
       <use x="83.789062" xlink:href="#DejaVuSans-49"/>
       <use x="147.412109" xlink:href="#DejaVuSans-48"/>
       <use x="211.035156" xlink:href="#DejaVuSans-46"/>
       <use x="242.822266" xlink:href="#DejaVuSans-48"/>
      </g>
     </g>
    </g>
    <g id="ytick_2">
     <g id="line2d_7">
      <g>
       <use style="stroke:#000000;stroke-width:0.8;" x="44.845313" xlink:href="#m2714d05f68" y="191.994358"/>
      </g>
     </g>
     <g id="text_7">
      <!-- −7.5 -->
      <g transform="translate(13.5625 195.793576)scale(0.1 -0.1)">
       <use xlink:href="#DejaVuSans-8722"/>
       <use x="83.789062" xlink:href="#DejaVuSans-55"/>
       <use x="147.412109" xlink:href="#DejaVuSans-46"/>
       <use x="179.199219" xlink:href="#DejaVuSans-53"/>
      </g>
     </g>
    </g>
    <g id="ytick_3">
     <g id="line2d_8">
      <g>
       <use style="stroke:#000000;stroke-width:0.8;" x="44.845313" xlink:href="#m2714d05f68" y="167.007112"/>
      </g>
     </g>
     <g id="text_8">
      <!-- −5.0 -->
      <g transform="translate(13.5625 170.806331)scale(0.1 -0.1)">
       <use xlink:href="#DejaVuSans-8722"/>
       <use x="83.789062" xlink:href="#DejaVuSans-53"/>
       <use x="147.412109" xlink:href="#DejaVuSans-46"/>
       <use x="179.199219" xlink:href="#DejaVuSans-48"/>
      </g>
     </g>
    </g>
    <g id="ytick_4">
     <g id="line2d_9">
      <g>
       <use style="stroke:#000000;stroke-width:0.8;" x="44.845313" xlink:href="#m2714d05f68" y="142.019866"/>
      </g>
     </g>
     <g id="text_9">
      <!-- −2.5 -->
      <g transform="translate(13.5625 145.819085)scale(0.1 -0.1)">
       <use xlink:href="#DejaVuSans-8722"/>
       <use x="83.789062" xlink:href="#DejaVuSans-50"/>
       <use x="147.412109" xlink:href="#DejaVuSans-46"/>
       <use x="179.199219" xlink:href="#DejaVuSans-53"/>
      </g>
     </g>
    </g>
    <g id="ytick_5">
     <g id="line2d_10">
      <g>
       <use style="stroke:#000000;stroke-width:0.8;" x="44.845313" xlink:href="#m2714d05f68" y="117.03262"/>
      </g>
     </g>
     <g id="text_10">
      <!-- 0.0 -->
      <g transform="translate(21.942188 120.831839)scale(0.1 -0.1)">
       <use xlink:href="#DejaVuSans-48"/>
       <use x="63.623047" xlink:href="#DejaVuSans-46"/>
       <use x="95.410156" xlink:href="#DejaVuSans-48"/>
      </g>
     </g>
    </g>
    <g id="ytick_6">
     <g id="line2d_11">
      <g>
       <use style="stroke:#000000;stroke-width:0.8;" x="44.845313" xlink:href="#m2714d05f68" y="92.045374"/>
      </g>
     </g>
     <g id="text_11">
      <!-- 2.5 -->
      <g transform="translate(21.942188 95.844593)scale(0.1 -0.1)">
       <use xlink:href="#DejaVuSans-50"/>
       <use x="63.623047" xlink:href="#DejaVuSans-46"/>
       <use x="95.410156" xlink:href="#DejaVuSans-53"/>
      </g>
     </g>
    </g>
    <g id="ytick_7">
     <g id="line2d_12">
      <g>
       <use style="stroke:#000000;stroke-width:0.8;" x="44.845313" xlink:href="#m2714d05f68" y="67.058128"/>
      </g>
     </g>
     <g id="text_12">
      <!-- 5.0 -->
      <g transform="translate(21.942188 70.857347)scale(0.1 -0.1)">
       <use xlink:href="#DejaVuSans-53"/>
       <use x="63.623047" xlink:href="#DejaVuSans-46"/>
       <use x="95.410156" xlink:href="#DejaVuSans-48"/>
      </g>
     </g>
    </g>
    <g id="ytick_8">
     <g id="line2d_13">
      <g>
       <use style="stroke:#000000;stroke-width:0.8;" x="44.845313" xlink:href="#m2714d05f68" y="42.070882"/>
      </g>
     </g>
     <g id="text_13">
      <!-- 7.5 -->
      <g transform="translate(21.942188 45.870101)scale(0.1 -0.1)">
       <use xlink:href="#DejaVuSans-55"/>
       <use x="63.623047" xlink:href="#DejaVuSans-46"/>
       <use x="95.410156" xlink:href="#DejaVuSans-53"/>
      </g>
     </g>
    </g>
    <g id="ytick_9">
     <g id="line2d_14">
      <g>
       <use style="stroke:#000000;stroke-width:0.8;" x="44.845313" xlink:href="#m2714d05f68" y="17.083636"/>
      </g>
     </g>
     <g id="text_14">
      <!-- 10.0 -->
      <g transform="translate(15.579688 20.882855)scale(0.1 -0.1)">
       <use xlink:href="#DejaVuSans-49"/>
       <use x="63.623047" xlink:href="#DejaVuSans-48"/>
       <use x="127.246094" xlink:href="#DejaVuSans-46"/>
       <use x="159.033203" xlink:href="#DejaVuSans-48"/>
      </g>
     </g>
    </g>
   </g>
   <g id="line2d_15">
    <path clip-path="url(#pb87e56fe75)" d="M 51.774842 17.083636 
L 51.913316 19.005146 
L 52.190263 29.83437 
L 52.605683 60.708545 
L 54.12889 196.06422 
L 54.405837 203.417716 
L 54.54431 203.882334 
L 54.682784 202.212657 
L 54.959731 192.802706 
L 55.375151 165.974887 
L 56.898358 48.358866 
L 57.175305 41.969116 
L 57.313779 41.56539 
L 57.452252 43.016241 
L 57.729199 51.192928 
L 58.144619 74.504704 
L 59.667826 176.706023 
L 59.944773 182.258335 
L 60.083247 182.609148 
L 60.22172 181.348445 
L 60.498667 174.243392 
L 60.914087 153.986846 
L 62.437295 65.179987 
L 62.714241 60.355358 
L 62.852715 60.050522 
L 62.991188 61.145998 
L 63.268135 67.319867 
L 63.683555 84.921598 
L 65.206763 162.08947 
L 65.48371 166.281785 
L 65.622183 166.546669 
L 65.760656 165.594766 
L 66.037603 160.230042 
L 66.453023 144.935185 
L 67.976231 77.880901 
L 68.253178 74.238029 
L 68.391651 74.00786 
L 68.530124 74.835007 
L 68.807071 79.496633 
L 69.222492 92.786952 
L 70.745699 151.053133 
L 71.022646 154.218571 
L 71.161119 154.418574 
L 71.299593 153.699833 
L 71.576539 149.649158 
L 71.99196 138.100661 
L 73.515167 87.470821 
L 73.792114 84.720243 
L 73.930587 84.546452 
L 74.069061 85.170996 
L 74.346008 88.690791 
L 74.761428 98.725747 
L 76.284635 142.720063 
L 76.561582 145.110151 
L 76.700055 145.261165 
L 76.838529 144.718474 
L 77.115476 141.659981 
L 77.530896 132.940203 
L 79.054103 94.711762 
L 79.33105 92.634917 
L 79.469524 92.503695 
L 79.607997 92.975262 
L 79.884944 95.63291 
L 80.300364 103.209878 
L 81.823572 136.428117 
L 82.100518 138.232771 
L 82.238992 138.346795 
L 82.377465 137.937032 
L 82.654412 135.627694 
L 83.069832 129.043759 
L 84.59304 100.179089 
L 84.869986 98.610952 
L 85.00846 98.511872 
L 85.146933 98.867931 
L 85.42388 100.874608 
L 85.8393 106.595655 
L 87.362508 131.677335 
L 87.639455 133.039953 
L 87.777928 133.126047 
L 87.916401 132.816653 
L 88.193348 131.07297 
L 88.608768 126.101721 
L 90.131976 104.307235 
L 90.408923 103.123201 
L 90.547396 103.04839 
L 90.68587 103.317236 
L 90.962816 104.832392 
L 91.378237 109.152111 
L 92.901444 128.090222 
L 93.178391 129.119077 
L 93.316864 129.184083 
L 93.455338 128.950472 
L 93.732284 127.633892 
L 94.147705 123.880313 
L 95.670912 107.424222 
L 95.947859 106.530209 
L 96.086332 106.473722 
L 96.224806 106.676716 
L 96.501753 107.820746 
L 96.917173 111.082383 
L 98.44038 125.381745 
L 98.717327 126.15859 
L 98.8558 126.207673 
L 98.994274 126.031284 
L 99.271221 125.03719 
L 99.686641 122.203022 
L 101.209848 109.777727 
L 101.486795 109.102696 
L 101.625269 109.060045 
L 101.763742 109.213317 
L 102.040689 110.077126 
L 102.456109 112.539849 
L 103.979317 123.33669 
L 104.256263 123.923252 
L 104.394737 123.960313 
L 104.53321 123.827129 
L 104.810157 123.07653 
L 105.225577 120.936571 
L 106.748785 111.554759 
L 107.025731 111.045071 
L 107.164205 111.012868 
L 107.441152 111.38736 
L 107.718098 112.297464 
L 108.271992 115.274061 
L 109.241306 120.863567 
L 109.656726 122.077792 
L 109.933673 122.263426 
L 110.21062 121.938015 
L 110.487567 121.147188 
L 111.04146 118.560703 
L 112.010774 113.703755 
L 112.426194 112.648666 
L 112.703141 112.487361 
L 112.980088 112.770124 
L 113.257035 113.457305 
L 113.810928 115.704807 
L 114.780242 119.925205 
L 115.195662 120.842015 
L 115.472609 120.98218 
L 115.749556 120.736475 
L 116.164976 119.729001 
L 116.857343 117.03262 
L 117.54971 114.519136 
L 117.965131 113.722483 
L 118.242077 113.600688 
L 118.519024 113.81419 
L 118.934444 114.689626 
L 119.626811 117.03262 
L 120.319178 119.216688 
L 120.734599 119.908932 
L 121.011546 120.014765 
L 121.288492 119.829244 
L 121.703913 119.068542 
L 122.39628 117.03262 
L 123.088647 115.134795 
L 123.504067 114.533276 
L 123.781014 114.441314 
L 124.05796 114.602521 
L 124.473381 115.263525 
L 125.165748 117.03262 
L 125.858115 118.681717 
L 126.273535 119.204401 
L 126.550482 119.284311 
L 126.827429 119.144232 
L 127.242849 118.569858 
L 127.935216 117.03262 
L 128.627583 115.599653 
L 129.043003 115.145472 
L 129.31995 115.076035 
L 129.596897 115.197755 
L 130.012317 115.696851 
L 130.704684 117.03262 
L 131.397051 118.277783 
L 131.812471 118.67244 
L 132.089418 118.732776 
L 132.366365 118.627008 
L 132.781785 118.193323 
L 133.612625 116.786433 
L 134.304993 115.803375 
L 134.720413 115.563189 
L 135.135833 115.647192 
L 135.551253 116.024038 
L 136.382094 117.246542 
L 137.074461 118.100761 
L 137.489881 118.309468 
L 137.905301 118.236475 
L 138.320721 117.909018 
L 139.151562 116.846734 
L 139.843929 116.104469 
L 140.259349 115.923115 
L 140.674769 115.986542 
L 141.090189 116.271083 
L 142.059503 117.349456 
L 142.613397 117.839128 
L 143.028817 117.996714 
L 143.444237 117.9416 
L 143.998131 117.578836 
L 145.521338 116.266192 
L 145.936759 116.190374 
L 146.352179 116.297822 
L 146.906073 116.668594 
L 148.152333 117.64158 
L 148.706227 117.764481 
L 149.26012 117.608304 
L 150.090961 117.03262 
L 150.921801 116.50347 
L 151.475695 116.396676 
L 152.029589 116.532385 
L 152.860429 117.03262 
L 153.691269 117.49242 
L 154.245163 117.585217 
L 154.799057 117.467295 
L 155.768371 116.952602 
L 156.599211 116.595671 
L 157.153105 116.561677 
L 157.845472 116.762028 
L 159.507152 117.435055 
L 160.19952 117.396634 
L 161.168833 117.03262 
L 162.138147 116.702698 
L 162.830514 116.692616 
L 163.661355 116.926705 
L 165.046089 117.336482 
L 165.738456 117.307472 
L 166.846243 116.987001 
L 167.815557 116.768582 
L 168.646397 116.817285 
L 171.138919 117.255697 
L 172.246706 117.03262 
L 173.492967 116.827027 
L 174.46228 116.916139 
L 176.400908 117.212229 
L 177.508695 117.08509 
L 179.170376 116.87655 
L 180.416637 117.009701 
L 181.939844 117.168235 
L 183.324578 117.03262 
L 184.847786 116.917044 
L 186.509467 117.08145 
L 187.894201 117.121954 
L 190.109775 116.944119 
L 190.109775 116.944119 
" style="fill:none;stroke:#1f77b4;stroke-linecap:square;stroke-width:1.5;"/>
   </g>
   <g id="line2d_16">
    <path clip-path="url(#pb87e56fe75)" d="M 51.762668 17.303361 
L 51.943331 30.84128 
L 52.016352 23.088752 
L 52.080967 26.651369 
L 52.394106 36.66073 
L 52.608622 67.160864 
L 52.919019 73.480111 
L 52.721338 85.217858 
L 53.633917 154.708832 
L 53.675084 173.896238 
L 53.855611 173.003659 
L 54.044353 196.314997 
L 54.50265 201.008893 
L 54.51042 207.093143 
L 54.664004 214.756364 
L 54.968144 203.18191 
L 54.923551 192.392498 
L 55.361233 178.87557 
L 55.324197 162.875917 
L 55.72044 129.064439 
L 55.925753 122.149191 
L 56.289743 90.20299 
L 56.744611 60.26439 
L 56.973775 45.751658 
L 57.181023 43.891753 
L 57.265547 40.402576 
L 57.440103 39.31392 
L 57.701257 55.307608 
L 57.824104 51.738021 
L 58.075191 77.947057 
L 58.254992 81.72582 
L 58.368642 97.777454 
L 58.617723 111.547006 
L 59.297671 157.589607 
L 59.379918 167.120262 
L 59.600538 173.397922 
L 59.621273 186.610842 
L 59.892548 177.818597 
L 60.047163 188.8219 
L 60.191372 189.238655 
L 60.599132 162.030489 
L 60.852643 168.852522 
L 60.845385 149.625526 
L 61.153694 155.294758 
L 61.285417 142.944611 
L 61.314069 121.270786 
L 61.484342 121.108692 
L 61.649906 113.43659 
L 62.047844 75.875971 
L 62.299533 66.450927 
L 62.387332 69.139348 
L 62.603583 53.644088 
L 62.797829 50.302895 
L 62.754815 61.973448 
L 62.880383 59.909584 
L 63.114742 64.598152 
L 63.308666 62.391131 
L 63.515983 84.306996 
L 63.581859 82.447219 
L 63.662433 69.705109 
L 63.726798 94.121279 
L 64.047259 104.504701 
L 64.055721 109.097492 
L 64.184593 113.493829 
L 64.337522 126.144392 
L 64.520702 130.716403 
L 64.807193 147.801908 
L 65.084711 144.611136 
L 65.097249 151.187364 
L 65.316971 160.228234 
L 65.217478 162.336085 
L 65.431629 163.684357 
L 65.634978 160.067298 
L 65.79341 165.8998 
L 65.862425 165.844755 
L 66.026057 156.842098 
L 66.132772 158.257522 
L 66.276829 151.678684 
L 66.374593 134.210588 
L 66.684308 134.427069 
L 66.791807 130.409366 
L 66.840461 124.206008 
L 67.331415 112.016732 
L 67.350109 105.253315 
L 67.567006 89.424638 
L 67.670517 90.902427 
L 67.662275 92.81839 
L 67.857846 73.334268 
L 68.09396 78.553805 
L 68.157903 83.97429 
L 68.142396 75.706498 
L 68.404544 72.077055 
L 68.493227 80.616836 
L 68.679285 74.454087 
L 69.053451 97.84754 
L 69.298745 89.273389 
L 69.262836 102.085039 
L 69.555325 98.341654 
L 69.591189 107.963676 
L 69.845775 128.174354 
L 70.022133 126.00213 
L 70.26717 134.048071 
L 70.423214 151.153139 
L 70.689961 159.848367 
L 70.695673 153.842474 
L 70.866485 153.771121 
L 71.117631 146.535026 
L 71.188783 156.793771 
L 71.316198 153.299371 
L 71.366414 153.7668 
L 71.926356 142.682601 
L 71.975496 133.514298 
L 72.154976 134.225653 
L 72.374395 125.117798 
L 72.532205 125.766443 
L 72.676548 110.33106 
L 72.76554 111.506531 
L 73.051122 93.144305 
L 72.934964 91.279993 
L 73.282357 98.382346 
L 73.404673 95.685157 
L 73.643908 77.252133 
L 73.868418 91.189392 
L 74.141489 81.752262 
L 74.374053 87.028413 
L 74.419684 97.884081 
L 74.68728 94.582241 
L 74.751154 107.661597 
L 74.848404 103.346249 
L 75.044357 105.616251 
L 75.275903 126.770771 
L 75.439643 116.365401 
L 75.46402 124.259736 
L 75.781209 120.540306 
L 75.855733 144.063235 
L 75.908252 143.905651 
L 76.099299 135.597608 
L 76.338152 150.18377 
L 76.379085 136.566612 
L 76.883914 147.387369 
L 77.265876 131.774439 
L 77.342772 136.940741 
L 77.339568 129.300449 
L 77.557209 129.136682 
L 77.612962 135.548227 
L 77.815868 133.907706 
L 78.065243 123.737032 
L 78.157596 124.192804 
L 78.255031 104.136802 
L 78.46247 110.08888 
L 78.822176 90.166071 
L 79.072421 92.702388 
L 79.10783 88.341367 
L 79.276559 97.435504 
L 79.540435 94.405391 
L 79.554293 90.501986 
L 79.716622 93.061027 
L 79.82214 90.948508 
L 79.989104 98.569827 
L 80.123506 99.575165 
L 80.237325 104.684168 
L 80.500459 106.729772 
L 80.517167 116.193036 
L 80.677004 115.972455 
L 80.841755 124.892718 
L 81.024877 127.438546 
L 81.041322 119.475104 
L 81.381575 115.207674 
L 81.431567 137.326113 
L 81.58201 129.310038 
L 81.764454 138.298022 
L 81.962217 141.323987 
L 81.822557 128.91587 
L 82.418859 144.994936 
L 82.800491 125.972667 
L 83.085423 132.490491 
L 83.294339 118.67216 
L 83.360621 122.816997 
L 83.472329 110.202958 
L 83.613711 115.089973 
L 83.880625 108.594552 
L 84.006442 109.939013 
L 84.011875 104.818452 
L 84.498014 102.133051 
L 84.40044 104.31143 
L 84.549821 102.2012 
L 84.556049 97.998513 
L 84.857059 101.087624 
L 84.968141 89.608888 
L 85.238464 99.946285 
L 85.576563 112.173692 
L 85.783633 97.338542 
L 85.813479 108.190373 
L 86.091862 108.683921 
L 86.130695 107.875674 
L 86.407723 124.367121 
L 86.470088 125.569092 
L 86.63994 115.315113 
L 86.821984 124.646819 
L 87.125137 122.914483 
L 87.10303 133.244286 
L 87.53719 130.859746 
L 87.772592 134.617485 
L 87.844063 130.953215 
L 88.013474 137.753328 
L 88.303418 133.895392 
L 88.359101 128.019139 
L 88.493425 135.217875 
L 88.565273 118.380201 
L 88.870373 123.197909 
L 89.138527 113.436259 
L 89.206479 117.728106 
L 89.471809 114.672991 
L 89.527731 116.677428 
L 89.747673 107.729348 
L 89.971564 103.336827 
L 89.997245 100.283032 
L 90.050974 106.11886 
L 90.205453 105.807604 
L 90.428789 101.469804 
L 90.349801 107.632895 
L 90.632584 100.424488 
L 90.944663 98.516478 
L 90.935044 99.858321 
L 91.083311 94.657298 
L 91.367755 110.349829 
L 91.445432 107.656704 
L 91.93142 121.711487 
L 92.011652 120.111832 
L 92.170576 120.14499 
L 92.434635 116.270016 
L 92.524647 131.496682 
L 92.553595 120.687992 
L 92.936719 135.169685 
L 93.033304 124.461032 
L 93.179976 121.513933 
L 93.446323 133.892869 
L 93.61599 132.335367 
L 93.782974 131.4217 
L 93.888599 127.987222 
L 94.029484 117.034422 
L 94.135924 120.718855 
L 94.292505 118.320748 
L 94.446775 119.197814 
L 94.611668 118.284988 
L 94.726179 115.708681 
L 94.778838 111.193394 
L 94.998752 111.920785 
L 95.347268 119.911004 
L 95.411254 110.561555 
L 95.584218 107.285694 
L 95.765453 101.148257 
L 95.936427 105.190291 
L 95.902303 103.110347 
L 96.121844 103.686156 
L 96.206005 105.402517 
L 96.217609 104.340469 
L 96.527343 114.48993 
L 96.654703 114.358623 
L 96.72267 107.97932 
L 96.850494 113.299164 
L 97.205298 118.610062 
L 97.2304 108.444506 
L 97.483242 117.338115 
L 97.532829 112.210419 
L 97.645315 122.883133 
L 97.820931 118.326766 
L 98.007906 119.443207 
L 98.28572 128.957146 
L 98.465386 129.990793 
L 98.53494 126.779827 
L 98.753302 127.978884 
L 98.902609 119.465168 
L 99.022096 126.697679 
L 99.191273 122.468687 
L 99.240629 130.216335 
L 99.420862 116.753895 
L 99.554299 123.012192 
L 99.658137 117.62313 
L 99.88836 126.040995 
L 99.923777 118.754569 
L 100.110878 120.47091 
L 100.138235 128.253402 
L 100.344217 115.681207 
L 100.593327 120.679779 
L 100.880992 109.775681 
L 101.014156 112.353117 
L 101.100647 117.175389 
L 101.1577 103.30153 
L 101.343655 103.954308 
L 101.365402 102.437311 
L 101.60764 114.978048 
L 101.845443 104.934147 
L 102.008067 118.897484 
L 102.029831 101.732967 
L 102.222019 114.818126 
L 102.481819 113.222809 
L 102.60297 115.388874 
L 102.901646 113.404663 
L 102.859257 108.753724 
L 102.971152 123.482405 
L 103.111009 115.620036 
L 103.419796 126.875858 
L 103.377462 121.249191 
L 103.58232 121.979151 
L 103.802663 121.232936 
L 103.753788 126.09838 
L 103.989087 122.295384 
L 104.122288 127.546786 
L 104.315429 112.553367 
L 104.295893 126.802216 
L 104.728214 126.122731 
L 104.931247 125.006028 
L 104.983177 117.731284 
L 105.080737 126.537597 
L 105.201419 120.248652 
L 105.445842 123.417478 
L 105.49279 110.602823 
L 106.067466 119.889641 
L 106.166738 109.633781 
L 106.388049 118.352837 
L 106.622393 113.835221 
L 106.707438 120.100392 
L 106.82465 117.03779 
L 107.027188 108.442373 
L 107.136724 108.575163 
L 107.36014 110.95384 
L 107.583479 104.612497 
L 107.749142 113.468084 
L 107.792809 107.400849 
L 107.980701 111.881975 
L 108.136243 107.653239 
L 108.289527 114.289758 
L 108.37427 123.241339 
L 108.534542 118.745283 
L 108.754216 104.344174 
L 109.04633 130.94722 
L 109.16567 120.907383 
L 109.450368 122.741709 
L 109.525573 116.81633 
L 109.678127 124.790606 
L 109.694009 133.974762 
L 109.827154 126.127068 
L 109.962082 125.286108 
L 110.097505 116.607718 
L 110.364259 122.190744 
L 110.393859 112.433839 
L 110.61936 124.523567 
L 110.806116 125.304863 
L 110.960886 121.116466 
L 110.994795 122.245194 
L 111.258716 117.656572 
L 111.391413 120.583356 
L 111.395383 120.187124 
L 111.68306 112.109906 
L 111.599997 113.744949 
L 111.909208 117.558514 
L 112.067968 117.392266 
L 112.283558 119.298868 
L 112.443654 107.046512 
L 112.408411 115.892488 
L 112.597716 115.319259 
L 112.819826 104.902827 
L 113.14157 117.709418 
L 113.359236 119.265015 
L 113.753107 105.281976 
L 113.823557 115.982723 
L 114.218926 109.180056 
L 114.410786 113.381753 
L 114.430245 121.126727 
L 114.588387 120.222318 
L 114.878926 111.992404 
L 114.861595 126.890287 
L 115.021061 111.973673 
L 115.150624 125.794994 
L 115.353367 126.363116 
L 115.715667 114.49918 
L 115.651328 116.561803 
L 115.944019 120.084684 
L 116.075804 113.97118 
L 116.16622 118.370965 
L 116.311353 112.153451 
L 116.505239 116.591183 
L 116.470304 111.010109 
L 116.740336 122.036182 
L 116.837084 115.118596 
L 117.140716 112.251188 
L 117.126967 128.633637 
L 117.167783 118.548474 
L 117.320129 116.277188 
L 117.545713 118.662815 
L 117.83933 113.070972 
L 117.891131 119.760975 
L 118.077986 119.253277 
L 118.245596 118.409064 
L 118.548917 105.602699 
L 118.666258 117.391292 
L 118.926924 114.87906 
L 118.969615 109.188084 
L 119.201036 121.078877 
L 119.182986 116.825129 
L 119.456932 117.613293 
L 119.439327 121.222011 
L 119.604243 123.011374 
L 119.780052 114.258327 
L 119.879199 115.600309 
L 120.105823 123.13981 
L 120.188077 107.528722 
L 120.41729 129.078704 
L 120.427515 115.658878 
L 120.650107 118.895056 
L 120.709033 114.090473 
L 120.852812 122.191526 
L 121.132161 122.196872 
L 121.220087 126.560972 
L 121.287378 113.408313 
L 121.354551 126.542077 
L 121.556877 112.018953 
L 121.687544 113.747058 
L 121.758861 118.643087 
L 122.085867 120.022827 
L 122.069247 111.997737 
L 122.184594 118.437359 
L 122.490947 121.646168 
L 122.387904 119.361367 
L 122.703002 116.900805 
L 122.76148 114.448499 
L 123.110139 120.542921 
L 123.16763 120.51169 
L 123.257091 116.98841 
L 123.580842 121.844769 
L 123.607103 113.146113 
L 123.921872 115.611616 
L 124.019222 113.070929 
L 124.195755 112.574408 
L 124.189025 114.342038 
L 124.31127 115.84934 
L 124.532386 109.401446 
L 124.567703 112.016475 
L 124.900314 119.498456 
L 125.041351 118.383609 
L 125.25921 111.932572 
L 125.478649 113.551281 
L 125.607657 110.643614 
L 125.758573 118.885818 
L 125.86573 110.339161 
L 126.207964 116.224263 
L 126.143575 116.054868 
L 126.344451 128.791009 
L 126.483572 112.408224 
L 126.725404 127.271072 
L 126.794071 112.477244 
L 126.967486 124.218004 
L 127.208477 114.131173 
L 127.226587 118.692924 
L 127.373268 119.501154 
L 127.59763 112.281537 
L 127.697893 114.91496 
L 127.768646 113.748899 
L 128.13806 125.319851 
L 128.50308 105.497486 
L 128.591562 116.353633 
L 128.851227 119.685431 
L 128.917345 117.359377 
L 129.08256 117.324737 
L 129.175436 108.576847 
L 129.343709 114.282735 
L 129.465697 109.290877 
L 129.586552 110.433595 
L 129.795584 109.357747 
L 129.994252 115.782733 
L 130.028766 115.732612 
L 130.238448 114.563232 
L 130.488391 106.657012 
L 130.528553 113.006618 
L 130.769092 115.565264 
L 130.781622 108.0276 
L 131.159154 123.308018 
L 131.198965 120.858997 
L 131.448558 113.221397 
L 131.541997 117.729069 
L 131.533072 117.248637 
L 131.745843 114.663196 
L 132.068142 124.914662 
L 131.945227 121.833341 
L 132.133145 113.468609 
L 132.441866 117.034467 
L 132.418995 120.001053 
L 132.643843 114.146158 
L 132.667342 122.670934 
L 132.984438 117.336024 
L 133.108374 120.033211 
L 133.159446 116.158233 
L 133.366367 125.84283 
L 133.5577 122.459918 
L 133.594094 116.908436 
L 133.803761 122.88412 
L 133.903002 113.369409 
L 133.973265 120.435245 
L 134.270923 112.494844 
L 134.366553 122.497016 
L 134.658694 117.53574 
L 134.689612 118.702204 
L 134.894647 119.132035 
L 135.039624 112.823257 
L 135.145231 116.507438 
L 135.182663 105.653639 
L 135.612495 114.465774 
L 135.624023 111.869621 
L 135.91692 110.799418 
L 136.106835 121.708053 
L 136.202178 118.021175 
L 136.339972 121.016777 
L 136.551543 121.645211 
L 136.749791 117.836175 
L 136.759608 109.875247 
L 137.222283 121.181404 
L 137.386328 114.660524 
L 137.326559 118.076229 
L 137.506023 119.536412 
L 137.788211 126.069304 
L 137.956559 116.841461 
L 138.211567 119.641824 
L 138.394349 127.638221 
L 138.642288 110.529481 
L 138.638804 116.232134 
L 138.896351 120.988997 
L 138.92218 112.798231 
L 139.093967 113.122281 
L 139.414386 107.709135 
L 139.31236 113.28702 
L 139.478137 114.952498 
L 139.623834 115.159678 
L 139.859923 115.045493 
L 140.03151 121.565863 
L 140.188492 122.21686 
L 140.292536 121.149538 
L 140.453088 109.190818 
L 140.555281 115.672543 
L 140.759612 116.801247 
L 140.858409 122.365784 
L 141.143512 111.615637 
L 141.341027 119.437951 
L 141.514192 120.246434 
L 141.684756 119.603751 
L 141.913306 123.944246 
L 142.032332 118.827916 
L 142.232236 125.996445 
L 142.464489 110.450713 
L 142.581955 116.176103 
L 142.710023 112.440988 
L 142.77844 121.473398 
L 143.102635 115.540634 
L 143.33906 118.113451 
L 143.358855 117.318979 
L 143.584647 123.519871 
L 143.617293 114.91324 
L 143.826155 121.802268 
L 144.074913 114.487029 
L 144.149815 116.074881 
L 144.257715 112.603404 
L 144.431964 115.703179 
L 144.586737 115.323004 
L 144.726039 118.13873 
L 144.971249 111.736077 
L 145.10647 120.635638 
L 145.27021 116.455617 
L 145.412685 118.989494 
L 145.507905 116.620565 
L 145.615391 118.349139 
L 145.791272 115.341005 
L 145.896485 118.011483 
L 145.935964 116.829206 
L 146.271176 106.758924 
L 146.399136 116.086507 
L 146.589527 121.419811 
L 146.624305 117.799388 
L 146.754294 121.420848 
L 146.927333 112.143892 
L 147.062455 115.067239 
L 147.205145 114.359219 
L 147.542354 119.994213 
L 147.641742 109.330168 
L 147.67802 121.099912 
L 147.896717 125.839969 
L 148.143412 113.181292 
L 148.349258 114.726188 
L 148.416418 107.690976 
L 148.609488 124.108321 
L 148.900792 120.105158 
L 148.851185 117.302235 
L 148.98117 110.05601 
L 149.310894 116.367556 
L 149.370767 124.952343 
L 149.555299 110.438359 
L 149.559427 122.24488 
L 150.053436 124.641302 
L 150.107745 110.963093 
L 150.19161 114.428092 
L 150.416367 110.168003 
L 150.552913 119.918208 
L 150.708019 113.552981 
L 151.03248 115.564158 
L 151.101418 109.180492 
L 151.248643 114.293883 
L 151.523078 112.435218 
L 151.727732 122.465019 
L 151.782212 116.865333 
L 152.034298 113.330496 
L 152.229945 113.823872 
L 152.278311 121.746325 
L 152.441915 114.026745 
L 152.448501 119.662627 
L 152.617718 116.80921 
L 152.884353 122.841184 
L 153.035339 122.13527 
L 153.152997 107.382657 
L 153.22713 112.983783 
L 153.418004 115.577975 
L 153.565187 111.073945 
L 153.600793 118.45423 
L 153.846765 113.24969 
L 154.084175 118.313479 
L 154.262912 119.310896 
L 154.499499 116.251654 
L 154.415653 110.823929 
L 154.76009 118.1577 
L 154.996041 119.950491 
L 155.301608 112.377067 
L 155.631702 116.682824 
L 155.440216 122.283995 
L 155.689873 112.305518 
L 155.847661 120.184777 
L 156.182363 118.087962 
L 156.293088 122.967338 
L 156.38979 113.436767 
L 156.531626 114.069137 
L 156.559604 127.224152 
L 156.835336 122.232489 
L 156.960027 122.131416 
L 157.00579 121.609034 
L 157.16108 108.498862 
L 157.219024 117.513373 
L 157.433854 124.233571 
L 157.50455 113.189994 
L 157.745806 116.266454 
L 157.861404 109.550004 
L 158.018868 118.733939 
L 158.232275 120.131288 
L 158.177119 105.781571 
L 158.394156 126.068568 
L 158.540325 123.583841 
L 158.561394 113.760832 
L 158.870308 118.749037 
L 158.972751 109.215832 
L 159.128496 121.864715 
L 159.2312 114.582797 
L 159.524935 122.977035 
L 159.650519 117.110638 
L 159.666046 118.297055 
L 159.906375 126.358675 
L 160.209586 112.428435 
L 160.493636 116.861902 
L 160.689485 114.322988 
L 160.654082 110.932813 
L 160.912692 119.627627 
L 161.028783 110.980396 
L 160.988593 121.391274 
L 161.332594 118.468225 
L 161.411485 114.840308 
L 161.676661 119.798333 
L 161.744128 116.015012 
L 162.047083 120.091354 
L 162.081507 109.839165 
L 162.319473 117.79143 
L 162.476831 110.164565 
L 162.537664 118.975712 
L 162.599715 111.941389 
L 162.841802 124.138326 
L 163.014475 109.80036 
L 163.070533 121.34713 
L 163.297211 115.045233 
L 163.518952 122.935136 
L 163.676701 119.788673 
L 163.846243 110.442098 
L 163.908502 124.899678 
L 164.09242 106.481868 
L 164.144393 123.049752 
L 164.320252 112.388019 
L 164.432185 118.935906 
L 164.673105 114.407968 
L 164.723834 120.078426 
L 164.848001 120.7347 
L 165.097842 113.956516 
L 165.148265 114.881958 
L 165.453176 125.64024 
L 165.621338 113.501354 
L 165.740015 112.889859 
L 165.971222 112.880097 
L 166.071392 109.994962 
L 166.095488 114.66208 
L 166.310153 122.150765 
L 166.477101 116.775277 
L 166.527279 117.038718 
L 166.808346 118.66954 
L 166.913287 106.586971 
L 167.135095 127.140425 
L 167.149973 121.329125 
L 167.365069 121.772647 
L 167.400614 124.972663 
L 167.745806 115.328318 
L 167.668715 123.456722 
L 168.05644 110.771784 
L 168.312833 111.97072 
L 168.30968 122.628822 
L 168.566428 124.885433 
L 168.944814 110.242182 
L 168.958529 111.515837 
L 169.124403 121.976866 
L 169.294202 113.259207 
L 169.44448 119.920653 
L 169.690744 111.670726 
L 169.870784 119.11432 
L 170.123982 112.708614 
L 170.299665 118.191962 
L 170.390054 114.3998 
L 170.576118 120.704505 
L 170.717117 115.528769 
L 170.804582 120.582274 
L 170.996975 122.058181 
L 171.205784 120.20581 
L 171.22718 106.801588 
L 171.403867 120.224828 
L 171.530958 114.857767 
L 171.698839 112.731966 
L 171.813808 124.039965 
L 172.173888 115.925558 
L 172.202184 110.60083 
L 172.367134 109.460504 
L 172.585762 116.228179 
L 172.813461 108.778286 
L 173.034117 112.323882 
L 173.003871 121.669921 
L 173.339408 110.58473 
L 173.380387 121.94631 
L 173.617547 128.590201 
L 173.891016 112.981768 
L 173.880456 116.723983 
L 174.171606 109.323666 
L 174.368622 121.522525 
L 174.434237 108.490618 
L 174.426774 114.2915 
L 174.786795 110.929705 
L 174.952345 127.077055 
L 175.167038 114.995787 
L 175.296559 116.03305 
L 175.448057 113.807385 
L 175.51429 116.962954 
L 175.691714 116.14181 
L 175.740921 126.075825 
L 176.147063 122.354354 
L 176.27736 119.025743 
L 176.495492 122.444579 
L 176.666706 117.298734 
L 176.554309 115.923077 
L 176.850957 123.687876 
L 176.999907 122.637884 
L 177.241313 112.012078 
L 177.310621 124.630358 
L 177.470247 120.416414 
L 177.783525 122.19454 
L 177.652883 119.341699 
L 177.852115 117.928676 
L 178.12222 117.602284 
L 178.192443 113.968525 
L 178.258174 124.251921 
L 178.519312 103.953612 
L 178.718049 112.759895 
L 178.984673 114.216285 
L 179.199559 122.306415 
L 179.149141 106.32218 
L 179.427414 123.877447 
L 179.452141 116.183024 
L 179.616002 111.80056 
L 179.733074 115.002355 
L 179.895428 112.720007 
L 180.095821 117.303824 
L 180.315409 113.354902 
L 180.514713 115.295151 
L 180.478078 112.249235 
L 180.600628 127.282005 
L 180.707389 110.04307 
L 180.937859 118.888615 
L 181.167933 118.639189 
L 181.291832 127.433316 
L 181.598701 111.836096 
L 181.827589 110.115123 
L 181.939545 115.387967 
L 181.989889 114.458356 
L 182.604029 122.633965 
L 182.617528 118.089927 
L 182.750785 112.968359 
L 182.958069 112.786268 
L 183.093004 112.15508 
L 183.147817 120.87125 
L 183.286757 112.842682 
L 183.512776 121.672093 
L 183.710733 116.962541 
L 183.73078 113.70637 
L 183.846129 123.042195 
L 184.030184 109.877522 
L 184.252825 124.911862 
L 184.550055 114.600193 
L 184.715468 117.335289 
L 184.823053 121.249417 
L 184.958239 109.465308 
L 185.415824 120.959908 
L 185.621137 122.182351 
L 185.636256 111.350577 
L 185.769419 119.368942 
L 185.998343 106.592833 
L 186.175424 126.305697 
L 186.344756 111.001519 
L 186.298835 120.629231 
L 186.555798 115.097265 
L 186.579566 111.021389 
L 186.947695 123.806585 
L 187.135282 115.476554 
L 187.295297 116.069974 
L 187.295302 121.014948 
L 187.561743 119.966278 
L 187.716634 112.365941 
L 187.831786 119.925909 
L 188.035282 122.437907 
L 188.180441 127.221647 
L 188.302325 112.091272 
L 188.401409 121.309175 
L 188.579757 121.473913 
L 188.895777 115.053478 
L 189.128513 112.578109 
L 189.008149 126.068204 
L 189.317349 113.593583 
L 189.57565 118.163872 
L 189.65978 114.540908 
L 189.918874 115.101621 
L 189.824496 116.282947 
L 190.088833 111.498842 
L 190.088833 111.498842 
" style="fill:none;stroke:#ff7f0e;stroke-dasharray:5.55,2.4;stroke-dashoffset:0;stroke-width:1.5;"/>
   </g>
   <g id="patch_3">
    <path d="M 44.845313 224.64 
L 44.845313 7.2 
" style="fill:none;stroke:#000000;stroke-linecap:square;stroke-linejoin:miter;stroke-width:0.8;"/>
   </g>
   <g id="patch_4">
    <path d="M 197.027131 224.64 
L 197.027131 7.2 
" style="fill:none;stroke:#000000;stroke-linecap:square;stroke-linejoin:miter;stroke-width:0.8;"/>
   </g>
   <g id="patch_5">
    <path d="M 44.845313 224.64 
L 197.027131 224.64 
" style="fill:none;stroke:#000000;stroke-linecap:square;stroke-linejoin:miter;stroke-width:0.8;"/>
   </g>
   <g id="patch_6">
    <path d="M 44.845313 7.2 
L 197.027131 7.2 
" style="fill:none;stroke:#000000;stroke-linecap:square;stroke-linejoin:miter;stroke-width:0.8;"/>
   </g>
   <g id="legend_1">
    <g id="patch_7">
     <path d="M 80.556818 44.55625 
L 190.027131 44.55625 
Q 192.027131 44.55625 192.027131 42.55625 
L 192.027131 14.2 
Q 192.027131 12.2 190.027131 12.2 
L 80.556818 12.2 
Q 78.556818 12.2 78.556818 14.2 
L 78.556818 42.55625 
Q 78.556818 44.55625 80.556818 44.55625 
z
" style="fill:#ffffff;opacity:0.8;stroke:#cccccc;stroke-linejoin:miter;"/>
    </g>
    <g id="line2d_17">
     <path d="M 82.556818 20.298437 
L 102.556818 20.298437 
" style="fill:none;stroke:#1f77b4;stroke-linecap:square;stroke-width:1.5;"/>
    </g>
    <g id="line2d_18"/>
    <g id="text_15">
     <!-- Ground truth -->
     <defs>
      <path d="M 59.515625 10.40625 
L 59.515625 29.984375 
L 43.40625 29.984375 
L 43.40625 38.09375 
L 69.28125 38.09375 
L 69.28125 6.78125 
Q 63.578125 2.734375 56.6875 0.65625 
Q 49.8125 -1.421875 42 -1.421875 
Q 24.90625 -1.421875 15.25 8.5625 
Q 5.609375 18.5625 5.609375 36.375 
Q 5.609375 54.25 15.25 64.234375 
Q 24.90625 74.21875 42 74.21875 
Q 49.125 74.21875 55.546875 72.453125 
Q 61.96875 70.703125 67.390625 67.28125 
L 67.390625 56.78125 
Q 61.921875 61.421875 55.765625 63.765625 
Q 49.609375 66.109375 42.828125 66.109375 
Q 29.4375 66.109375 22.71875 58.640625 
Q 16.015625 51.171875 16.015625 36.375 
Q 16.015625 21.625 22.71875 14.15625 
Q 29.4375 6.6875 42.828125 6.6875 
Q 48.046875 6.6875 52.140625 7.59375 
Q 56.25 8.5 59.515625 10.40625 
z
" id="DejaVuSans-71"/>
      <path d="M 41.109375 46.296875 
Q 39.59375 47.171875 37.8125 47.578125 
Q 36.03125 48 33.890625 48 
Q 26.265625 48 22.1875 43.046875 
Q 18.109375 38.09375 18.109375 28.8125 
L 18.109375 0 
L 9.078125 0 
L 9.078125 54.6875 
L 18.109375 54.6875 
L 18.109375 46.1875 
Q 20.953125 51.171875 25.484375 53.578125 
Q 30.03125 56 36.53125 56 
Q 37.453125 56 38.578125 55.875 
Q 39.703125 55.765625 41.0625 55.515625 
z
" id="DejaVuSans-114"/>
      <path d="M 30.609375 48.390625 
Q 23.390625 48.390625 19.1875 42.75 
Q 14.984375 37.109375 14.984375 27.296875 
Q 14.984375 17.484375 19.15625 11.84375 
Q 23.34375 6.203125 30.609375 6.203125 
Q 37.796875 6.203125 41.984375 11.859375 
Q 46.1875 17.53125 46.1875 27.296875 
Q 46.1875 37.015625 41.984375 42.703125 
Q 37.796875 48.390625 30.609375 48.390625 
z
M 30.609375 56 
Q 42.328125 56 49.015625 48.375 
Q 55.71875 40.765625 55.71875 27.296875 
Q 55.71875 13.875 49.015625 6.21875 
Q 42.328125 -1.421875 30.609375 -1.421875 
Q 18.84375 -1.421875 12.171875 6.21875 
Q 5.515625 13.875 5.515625 27.296875 
Q 5.515625 40.765625 12.171875 48.375 
Q 18.84375 56 30.609375 56 
z
" id="DejaVuSans-111"/>
      <path d="M 8.5 21.578125 
L 8.5 54.6875 
L 17.484375 54.6875 
L 17.484375 21.921875 
Q 17.484375 14.15625 20.5 10.265625 
Q 23.53125 6.390625 29.59375 6.390625 
Q 36.859375 6.390625 41.078125 11.03125 
Q 45.3125 15.671875 45.3125 23.6875 
L 45.3125 54.6875 
L 54.296875 54.6875 
L 54.296875 0 
L 45.3125 0 
L 45.3125 8.40625 
Q 42.046875 3.421875 37.71875 1 
Q 33.40625 -1.421875 27.6875 -1.421875 
Q 18.265625 -1.421875 13.375 4.4375 
Q 8.5 10.296875 8.5 21.578125 
z
M 31.109375 56 
z
" id="DejaVuSans-117"/>
      <path d="M 54.890625 33.015625 
L 54.890625 0 
L 45.90625 0 
L 45.90625 32.71875 
Q 45.90625 40.484375 42.875 44.328125 
Q 39.84375 48.1875 33.796875 48.1875 
Q 26.515625 48.1875 22.3125 43.546875 
Q 18.109375 38.921875 18.109375 30.90625 
L 18.109375 0 
L 9.078125 0 
L 9.078125 54.6875 
L 18.109375 54.6875 
L 18.109375 46.1875 
Q 21.34375 51.125 25.703125 53.5625 
Q 30.078125 56 35.796875 56 
Q 45.21875 56 50.046875 50.171875 
Q 54.890625 44.34375 54.890625 33.015625 
z
" id="DejaVuSans-110"/>
      <path d="M 45.40625 46.390625 
L 45.40625 75.984375 
L 54.390625 75.984375 
L 54.390625 0 
L 45.40625 0 
L 45.40625 8.203125 
Q 42.578125 3.328125 38.25 0.953125 
Q 33.9375 -1.421875 27.875 -1.421875 
Q 17.96875 -1.421875 11.734375 6.484375 
Q 5.515625 14.40625 5.515625 27.296875 
Q 5.515625 40.1875 11.734375 48.09375 
Q 17.96875 56 27.875 56 
Q 33.9375 56 38.25 53.625 
Q 42.578125 51.265625 45.40625 46.390625 
z
M 14.796875 27.296875 
Q 14.796875 17.390625 18.875 11.75 
Q 22.953125 6.109375 30.078125 6.109375 
Q 37.203125 6.109375 41.296875 11.75 
Q 45.40625 17.390625 45.40625 27.296875 
Q 45.40625 37.203125 41.296875 42.84375 
Q 37.203125 48.484375 30.078125 48.484375 
Q 22.953125 48.484375 18.875 42.84375 
Q 14.796875 37.203125 14.796875 27.296875 
z
" id="DejaVuSans-100"/>
      <path id="DejaVuSans-32"/>
      <path d="M 18.3125 70.21875 
L 18.3125 54.6875 
L 36.8125 54.6875 
L 36.8125 47.703125 
L 18.3125 47.703125 
L 18.3125 18.015625 
Q 18.3125 11.328125 20.140625 9.421875 
Q 21.96875 7.515625 27.59375 7.515625 
L 36.8125 7.515625 
L 36.8125 0 
L 27.59375 0 
Q 17.1875 0 13.234375 3.875 
Q 9.28125 7.765625 9.28125 18.015625 
L 9.28125 47.703125 
L 2.6875 47.703125 
L 2.6875 54.6875 
L 9.28125 54.6875 
L 9.28125 70.21875 
z
" id="DejaVuSans-116"/>
      <path d="M 54.890625 33.015625 
L 54.890625 0 
L 45.90625 0 
L 45.90625 32.71875 
Q 45.90625 40.484375 42.875 44.328125 
Q 39.84375 48.1875 33.796875 48.1875 
Q 26.515625 48.1875 22.3125 43.546875 
Q 18.109375 38.921875 18.109375 30.90625 
L 18.109375 0 
L 9.078125 0 
L 9.078125 75.984375 
L 18.109375 75.984375 
L 18.109375 46.1875 
Q 21.34375 51.125 25.703125 53.5625 
Q 30.078125 56 35.796875 56 
Q 45.21875 56 50.046875 50.171875 
Q 54.890625 44.34375 54.890625 33.015625 
z
" id="DejaVuSans-104"/>
     </defs>
     <g transform="translate(110.556818 23.798437)scale(0.1 -0.1)">
      <use xlink:href="#DejaVuSans-71"/>
      <use x="77.490234" xlink:href="#DejaVuSans-114"/>
      <use x="116.353516" xlink:href="#DejaVuSans-111"/>
      <use x="177.535156" xlink:href="#DejaVuSans-117"/>
      <use x="240.914062" xlink:href="#DejaVuSans-110"/>
      <use x="304.292969" xlink:href="#DejaVuSans-100"/>
      <use x="367.769531" xlink:href="#DejaVuSans-32"/>
      <use x="399.556641" xlink:href="#DejaVuSans-116"/>
      <use x="438.765625" xlink:href="#DejaVuSans-114"/>
      <use x="479.878906" xlink:href="#DejaVuSans-117"/>
      <use x="543.257812" xlink:href="#DejaVuSans-116"/>
      <use x="582.466797" xlink:href="#DejaVuSans-104"/>
     </g>
    </g>
    <g id="line2d_19">
     <path d="M 82.556818 34.976562 
L 102.556818 34.976562 
" style="fill:none;stroke:#ff7f0e;stroke-dasharray:5.55,2.4;stroke-dashoffset:0;stroke-width:1.5;"/>
    </g>
    <g id="line2d_20"/>
    <g id="text_16">
     <!-- Measured track -->
     <defs>
      <path d="M 9.8125 72.90625 
L 24.515625 72.90625 
L 43.109375 23.296875 
L 61.8125 72.90625 
L 76.515625 72.90625 
L 76.515625 0 
L 66.890625 0 
L 66.890625 64.015625 
L 48.09375 14.015625 
L 38.1875 14.015625 
L 19.390625 64.015625 
L 19.390625 0 
L 9.8125 0 
z
" id="DejaVuSans-77"/>
      <path d="M 56.203125 29.59375 
L 56.203125 25.203125 
L 14.890625 25.203125 
Q 15.484375 15.921875 20.484375 11.0625 
Q 25.484375 6.203125 34.421875 6.203125 
Q 39.59375 6.203125 44.453125 7.46875 
Q 49.3125 8.734375 54.109375 11.28125 
L 54.109375 2.78125 
Q 49.265625 0.734375 44.1875 -0.34375 
Q 39.109375 -1.421875 33.890625 -1.421875 
Q 20.796875 -1.421875 13.15625 6.1875 
Q 5.515625 13.8125 5.515625 26.8125 
Q 5.515625 40.234375 12.765625 48.109375 
Q 20.015625 56 32.328125 56 
Q 43.359375 56 49.78125 48.890625 
Q 56.203125 41.796875 56.203125 29.59375 
z
M 47.21875 32.234375 
Q 47.125 39.59375 43.09375 43.984375 
Q 39.0625 48.390625 32.421875 48.390625 
Q 24.90625 48.390625 20.390625 44.140625 
Q 15.875 39.890625 15.1875 32.171875 
z
" id="DejaVuSans-101"/>
      <path d="M 34.28125 27.484375 
Q 23.390625 27.484375 19.1875 25 
Q 14.984375 22.515625 14.984375 16.5 
Q 14.984375 11.71875 18.140625 8.90625 
Q 21.296875 6.109375 26.703125 6.109375 
Q 34.1875 6.109375 38.703125 11.40625 
Q 43.21875 16.703125 43.21875 25.484375 
L 43.21875 27.484375 
z
M 52.203125 31.203125 
L 52.203125 0 
L 43.21875 0 
L 43.21875 8.296875 
Q 40.140625 3.328125 35.546875 0.953125 
Q 30.953125 -1.421875 24.3125 -1.421875 
Q 15.921875 -1.421875 10.953125 3.296875 
Q 6 8.015625 6 15.921875 
Q 6 25.140625 12.171875 29.828125 
Q 18.359375 34.515625 30.609375 34.515625 
L 43.21875 34.515625 
L 43.21875 35.40625 
Q 43.21875 41.609375 39.140625 45 
Q 35.0625 48.390625 27.6875 48.390625 
Q 23 48.390625 18.546875 47.265625 
Q 14.109375 46.140625 10.015625 43.890625 
L 10.015625 52.203125 
Q 14.9375 54.109375 19.578125 55.046875 
Q 24.21875 56 28.609375 56 
Q 40.484375 56 46.34375 49.84375 
Q 52.203125 43.703125 52.203125 31.203125 
z
" id="DejaVuSans-97"/>
      <path d="M 44.28125 53.078125 
L 44.28125 44.578125 
Q 40.484375 46.53125 36.375 47.5 
Q 32.28125 48.484375 27.875 48.484375 
Q 21.1875 48.484375 17.84375 46.4375 
Q 14.5 44.390625 14.5 40.28125 
Q 14.5 37.15625 16.890625 35.375 
Q 19.28125 33.59375 26.515625 31.984375 
L 29.59375 31.296875 
Q 39.15625 29.25 43.1875 25.515625 
Q 47.21875 21.78125 47.21875 15.09375 
Q 47.21875 7.46875 41.1875 3.015625 
Q 35.15625 -1.421875 24.609375 -1.421875 
Q 20.21875 -1.421875 15.453125 -0.5625 
Q 10.6875 0.296875 5.421875 2 
L 5.421875 11.28125 
Q 10.40625 8.6875 15.234375 7.390625 
Q 20.0625 6.109375 24.8125 6.109375 
Q 31.15625 6.109375 34.5625 8.28125 
Q 37.984375 10.453125 37.984375 14.40625 
Q 37.984375 18.0625 35.515625 20.015625 
Q 33.0625 21.96875 24.703125 23.78125 
L 21.578125 24.515625 
Q 13.234375 26.265625 9.515625 29.90625 
Q 5.8125 33.546875 5.8125 39.890625 
Q 5.8125 47.609375 11.28125 51.796875 
Q 16.75 56 26.8125 56 
Q 31.78125 56 36.171875 55.265625 
Q 40.578125 54.546875 44.28125 53.078125 
z
" id="DejaVuSans-115"/>
      <path d="M 48.78125 52.59375 
L 48.78125 44.1875 
Q 44.96875 46.296875 41.140625 47.34375 
Q 37.3125 48.390625 33.40625 48.390625 
Q 24.65625 48.390625 19.8125 42.84375 
Q 14.984375 37.3125 14.984375 27.296875 
Q 14.984375 17.28125 19.8125 11.734375 
Q 24.65625 6.203125 33.40625 6.203125 
Q 37.3125 6.203125 41.140625 7.25 
Q 44.96875 8.296875 48.78125 10.40625 
L 48.78125 2.09375 
Q 45.015625 0.34375 40.984375 -0.53125 
Q 36.96875 -1.421875 32.421875 -1.421875 
Q 20.0625 -1.421875 12.78125 6.34375 
Q 5.515625 14.109375 5.515625 27.296875 
Q 5.515625 40.671875 12.859375 48.328125 
Q 20.21875 56 33.015625 56 
Q 37.15625 56 41.109375 55.140625 
Q 45.0625 54.296875 48.78125 52.59375 
z
" id="DejaVuSans-99"/>
      <path d="M 9.078125 75.984375 
L 18.109375 75.984375 
L 18.109375 31.109375 
L 44.921875 54.6875 
L 56.390625 54.6875 
L 27.390625 29.109375 
L 57.625 0 
L 45.90625 0 
L 18.109375 26.703125 
L 18.109375 0 
L 9.078125 0 
z
" id="DejaVuSans-107"/>
     </defs>
     <g transform="translate(110.556818 38.476562)scale(0.1 -0.1)">
      <use xlink:href="#DejaVuSans-77"/>
      <use x="86.279297" xlink:href="#DejaVuSans-101"/>
      <use x="147.802734" xlink:href="#DejaVuSans-97"/>
      <use x="209.082031" xlink:href="#DejaVuSans-115"/>
      <use x="261.181641" xlink:href="#DejaVuSans-117"/>
      <use x="324.560547" xlink:href="#DejaVuSans-114"/>
      <use x="363.423828" xlink:href="#DejaVuSans-101"/>
      <use x="424.947266" xlink:href="#DejaVuSans-100"/>
      <use x="488.423828" xlink:href="#DejaVuSans-32"/>
      <use x="520.210938" xlink:href="#DejaVuSans-116"/>
      <use x="559.419922" xlink:href="#DejaVuSans-114"/>
      <use x="600.533203" xlink:href="#DejaVuSans-97"/>
      <use x="661.8125" xlink:href="#DejaVuSans-99"/>
      <use x="716.792969" xlink:href="#DejaVuSans-107"/>
     </g>
    </g>
   </g>
  </g>
  <g id="axes_2">
   <g id="patch_8">
    <path d="M 227.463494 224.64 
L 379.645312 224.64 
L 379.645312 7.2 
L 227.463494 7.2 
z
" style="fill:#ffffff;"/>
   </g>
   <g id="matplotlib.axis_3">
    <g id="xtick_6">
     <g id="line2d_21">
      <g>
       <use style="stroke:#000000;stroke-width:0.8;" x="234.38085" xlink:href="#me7131772fd" y="224.64"/>
      </g>
     </g>
     <g id="text_17">
      <!-- 35 -->
      <defs>
       <path d="M 40.578125 39.3125 
Q 47.65625 37.796875 51.625 33 
Q 55.609375 28.21875 55.609375 21.1875 
Q 55.609375 10.40625 48.1875 4.484375 
Q 40.765625 -1.421875 27.09375 -1.421875 
Q 22.515625 -1.421875 17.65625 -0.515625 
Q 12.796875 0.390625 7.625 2.203125 
L 7.625 11.71875 
Q 11.71875 9.328125 16.59375 8.109375 
Q 21.484375 6.890625 26.8125 6.890625 
Q 36.078125 6.890625 40.9375 10.546875 
Q 45.796875 14.203125 45.796875 21.1875 
Q 45.796875 27.640625 41.28125 31.265625 
Q 36.765625 34.90625 28.71875 34.90625 
L 20.21875 34.90625 
L 20.21875 43.015625 
L 29.109375 43.015625 
Q 36.375 43.015625 40.234375 45.921875 
Q 44.09375 48.828125 44.09375 54.296875 
Q 44.09375 59.90625 40.109375 62.90625 
Q 36.140625 65.921875 28.71875 65.921875 
Q 24.65625 65.921875 20.015625 65.03125 
Q 15.375 64.15625 9.8125 62.3125 
L 9.8125 71.09375 
Q 15.4375 72.65625 20.34375 73.4375 
Q 25.25 74.21875 29.59375 74.21875 
Q 40.828125 74.21875 47.359375 69.109375 
Q 53.90625 64.015625 53.90625 55.328125 
Q 53.90625 49.265625 50.4375 45.09375 
Q 46.96875 40.921875 40.578125 39.3125 
z
" id="DejaVuSans-51"/>
      </defs>
      <g transform="translate(228.01835 239.238437)scale(0.1 -0.1)">
       <use xlink:href="#DejaVuSans-51"/>
       <use x="63.623047" xlink:href="#DejaVuSans-53"/>
      </g>
     </g>
    </g>
    <g id="xtick_7">
     <g id="line2d_22">
      <g>
       <use style="stroke:#000000;stroke-width:0.8;" x="270.172214" xlink:href="#me7131772fd" y="224.64"/>
      </g>
     </g>
     <g id="text_18">
      <!-- 40 -->
      <defs>
       <path d="M 37.796875 64.3125 
L 12.890625 25.390625 
L 37.796875 25.390625 
z
M 35.203125 72.90625 
L 47.609375 72.90625 
L 47.609375 25.390625 
L 58.015625 25.390625 
L 58.015625 17.1875 
L 47.609375 17.1875 
L 47.609375 0 
L 37.796875 0 
L 37.796875 17.1875 
L 4.890625 17.1875 
L 4.890625 26.703125 
z
" id="DejaVuSans-52"/>
      </defs>
      <g transform="translate(263.809714 239.238437)scale(0.1 -0.1)">
       <use xlink:href="#DejaVuSans-52"/>
       <use x="63.623047" xlink:href="#DejaVuSans-48"/>
      </g>
     </g>
    </g>
    <g id="xtick_8">
     <g id="line2d_23">
      <g>
       <use style="stroke:#000000;stroke-width:0.8;" x="305.963579" xlink:href="#me7131772fd" y="224.64"/>
      </g>
     </g>
     <g id="text_19">
      <!-- 45 -->
      <g transform="translate(299.601079 239.238437)scale(0.1 -0.1)">
       <use xlink:href="#DejaVuSans-52"/>
       <use x="63.623047" xlink:href="#DejaVuSans-53"/>
      </g>
     </g>
    </g>
    <g id="xtick_9">
     <g id="line2d_24">
      <g>
       <use style="stroke:#000000;stroke-width:0.8;" x="341.754944" xlink:href="#me7131772fd" y="224.64"/>
      </g>
     </g>
     <g id="text_20">
      <!-- 50 -->
      <g transform="translate(335.392444 239.238437)scale(0.1 -0.1)">
       <use xlink:href="#DejaVuSans-53"/>
       <use x="63.623047" xlink:href="#DejaVuSans-48"/>
      </g>
     </g>
    </g>
    <g id="xtick_10">
     <g id="line2d_25">
      <g>
       <use style="stroke:#000000;stroke-width:0.8;" x="377.546308" xlink:href="#me7131772fd" y="224.64"/>
      </g>
     </g>
     <g id="text_21">
      <!-- 55 -->
      <g transform="translate(371.183808 239.238437)scale(0.1 -0.1)">
       <use xlink:href="#DejaVuSans-53"/>
       <use x="63.623047" xlink:href="#DejaVuSans-53"/>
      </g>
     </g>
    </g>
   </g>
   <g id="matplotlib.axis_4">
    <g id="ytick_10">
     <g id="line2d_26">
      <g>
       <use style="stroke:#000000;stroke-width:0.8;" x="227.463494" xlink:href="#m2714d05f68" y="213.791373"/>
      </g>
     </g>
     <g id="text_22">
      <!-- −4 -->
      <g transform="translate(205.721307 217.590592)scale(0.1 -0.1)">
       <use xlink:href="#DejaVuSans-8722"/>
       <use x="83.789062" xlink:href="#DejaVuSans-52"/>
      </g>
     </g>
    </g>
    <g id="ytick_11">
     <g id="line2d_27">
      <g>
       <use style="stroke:#000000;stroke-width:0.8;" x="227.463494" xlink:href="#m2714d05f68" y="180.382667"/>
      </g>
     </g>
     <g id="text_23">
      <!-- −2 -->
      <g transform="translate(205.721307 184.181886)scale(0.1 -0.1)">
       <use xlink:href="#DejaVuSans-8722"/>
       <use x="83.789062" xlink:href="#DejaVuSans-50"/>
      </g>
     </g>
    </g>
    <g id="ytick_12">
     <g id="line2d_28">
      <g>
       <use style="stroke:#000000;stroke-width:0.8;" x="227.463494" xlink:href="#m2714d05f68" y="146.973961"/>
      </g>
     </g>
     <g id="text_24">
      <!-- 0 -->
      <g transform="translate(214.100994 150.77318)scale(0.1 -0.1)">
       <use xlink:href="#DejaVuSans-48"/>
      </g>
     </g>
    </g>
    <g id="ytick_13">
     <g id="line2d_29">
      <g>
       <use style="stroke:#000000;stroke-width:0.8;" x="227.463494" xlink:href="#m2714d05f68" y="113.565255"/>
      </g>
     </g>
     <g id="text_25">
      <!-- 2 -->
      <g transform="translate(214.100994 117.364474)scale(0.1 -0.1)">
       <use xlink:href="#DejaVuSans-50"/>
      </g>
     </g>
    </g>
    <g id="ytick_14">
     <g id="line2d_30">
      <g>
       <use style="stroke:#000000;stroke-width:0.8;" x="227.463494" xlink:href="#m2714d05f68" y="80.156549"/>
      </g>
     </g>
     <g id="text_26">
      <!-- 4 -->
      <g transform="translate(214.100994 83.955768)scale(0.1 -0.1)">
       <use xlink:href="#DejaVuSans-52"/>
      </g>
     </g>
    </g>
    <g id="ytick_15">
     <g id="line2d_31">
      <g>
       <use style="stroke:#000000;stroke-width:0.8;" x="227.463494" xlink:href="#m2714d05f68" y="46.747843"/>
      </g>
     </g>
     <g id="text_27">
      <!-- 6 -->
      <defs>
       <path d="M 33.015625 40.375 
Q 26.375 40.375 22.484375 35.828125 
Q 18.609375 31.296875 18.609375 23.390625 
Q 18.609375 15.53125 22.484375 10.953125 
Q 26.375 6.390625 33.015625 6.390625 
Q 39.65625 6.390625 43.53125 10.953125 
Q 47.40625 15.53125 47.40625 23.390625 
Q 47.40625 31.296875 43.53125 35.828125 
Q 39.65625 40.375 33.015625 40.375 
z
M 52.59375 71.296875 
L 52.59375 62.3125 
Q 48.875 64.0625 45.09375 64.984375 
Q 41.3125 65.921875 37.59375 65.921875 
Q 27.828125 65.921875 22.671875 59.328125 
Q 17.53125 52.734375 16.796875 39.40625 
Q 19.671875 43.65625 24.015625 45.921875 
Q 28.375 48.1875 33.59375 48.1875 
Q 44.578125 48.1875 50.953125 41.515625 
Q 57.328125 34.859375 57.328125 23.390625 
Q 57.328125 12.15625 50.6875 5.359375 
Q 44.046875 -1.421875 33.015625 -1.421875 
Q 20.359375 -1.421875 13.671875 8.265625 
Q 6.984375 17.96875 6.984375 36.375 
Q 6.984375 53.65625 15.1875 63.9375 
Q 23.390625 74.21875 37.203125 74.21875 
Q 40.921875 74.21875 44.703125 73.484375 
Q 48.484375 72.75 52.59375 71.296875 
z
" id="DejaVuSans-54"/>
      </defs>
      <g transform="translate(214.100994 50.547062)scale(0.1 -0.1)">
       <use xlink:href="#DejaVuSans-54"/>
      </g>
     </g>
    </g>
    <g id="ytick_16">
     <g id="line2d_32">
      <g>
       <use style="stroke:#000000;stroke-width:0.8;" x="227.463494" xlink:href="#m2714d05f68" y="13.339137"/>
      </g>
     </g>
     <g id="text_28">
      <!-- 8 -->
      <defs>
       <path d="M 31.78125 34.625 
Q 24.75 34.625 20.71875 30.859375 
Q 16.703125 27.09375 16.703125 20.515625 
Q 16.703125 13.921875 20.71875 10.15625 
Q 24.75 6.390625 31.78125 6.390625 
Q 38.8125 6.390625 42.859375 10.171875 
Q 46.921875 13.96875 46.921875 20.515625 
Q 46.921875 27.09375 42.890625 30.859375 
Q 38.875 34.625 31.78125 34.625 
z
M 21.921875 38.8125 
Q 15.578125 40.375 12.03125 44.71875 
Q 8.5 49.078125 8.5 55.328125 
Q 8.5 64.0625 14.71875 69.140625 
Q 20.953125 74.21875 31.78125 74.21875 
Q 42.671875 74.21875 48.875 69.140625 
Q 55.078125 64.0625 55.078125 55.328125 
Q 55.078125 49.078125 51.53125 44.71875 
Q 48 40.375 41.703125 38.8125 
Q 48.828125 37.15625 52.796875 32.3125 
Q 56.78125 27.484375 56.78125 20.515625 
Q 56.78125 9.90625 50.3125 4.234375 
Q 43.84375 -1.421875 31.78125 -1.421875 
Q 19.734375 -1.421875 13.25 4.234375 
Q 6.78125 9.90625 6.78125 20.515625 
Q 6.78125 27.484375 10.78125 32.3125 
Q 14.796875 37.15625 21.921875 38.8125 
z
M 18.3125 54.390625 
Q 18.3125 48.734375 21.84375 45.5625 
Q 25.390625 42.390625 31.78125 42.390625 
Q 38.140625 42.390625 41.71875 45.5625 
Q 45.3125 48.734375 45.3125 54.390625 
Q 45.3125 60.0625 41.71875 63.234375 
Q 38.140625 66.40625 31.78125 66.40625 
Q 25.390625 66.40625 21.84375 63.234375 
Q 18.3125 60.0625 18.3125 54.390625 
z
" id="DejaVuSans-56"/>
      </defs>
      <g transform="translate(214.100994 17.138356)scale(0.1 -0.1)">
       <use xlink:href="#DejaVuSans-56"/>
      </g>
     </g>
    </g>
   </g>
   <g id="line2d_33">
    <path clip-path="url(#p6c766e7b09)" d="M 234.38085 54.600507 
L 241.539123 42.027131 
L 248.697396 32.200345 
L 255.855668 25.32259 
L 263.013941 21.521233 
L 270.172214 20.846491 
L 277.330487 23.27128 
L 284.48876 28.692955 
L 291.647033 36.936878 
L 298.805306 47.761704 
L 305.963579 60.866221 
L 313.121852 75.897569 
L 320.280125 92.460601 
L 327.438398 110.128156 
L 334.596671 128.451972 
L 341.754944 146.973961 
L 348.913217 165.237571 
L 356.07149 182.798949 
L 363.229763 199.237638 
L 370.388035 214.166551 
" style="fill:none;stroke:#1f77b4;stroke-linecap:square;stroke-width:1.5;"/>
   </g>
   <g id="line2d_34">
    <path clip-path="url(#p6c766e7b09)" d="M 240.749546 52.097904 
L 248.383675 39.503438 
L 248.962951 32.082603 
L 252.595984 27.842949 
L 263.309499 24.734513 
L 267.678923 18.903094 
L 276.70248 17.083636 
L 290.2026 43.813693 
L 296.55306 37.847886 
L 299.542975 49.978818 
L 303.37601 52.955472 
L 309.532825 81.650732 
L 318.827512 87.966132 
L 324.702525 114.793035 
L 334.440594 128.795951 
L 337.578568 137.805921 
L 348.626571 160.285529 
L 358.136509 180.008349 
L 365.961143 203.271722 
L 372.727957 214.756364 
" style="fill:none;stroke:#ff7f0e;stroke-dasharray:5.55,2.4;stroke-dashoffset:0;stroke-width:1.5;"/>
   </g>
   <g id="patch_9">
    <path d="M 227.463494 224.64 
L 227.463494 7.2 
" style="fill:none;stroke:#000000;stroke-linecap:square;stroke-linejoin:miter;stroke-width:0.8;"/>
   </g>
   <g id="patch_10">
    <path d="M 379.645312 224.64 
L 379.645312 7.2 
" style="fill:none;stroke:#000000;stroke-linecap:square;stroke-linejoin:miter;stroke-width:0.8;"/>
   </g>
   <g id="patch_11">
    <path d="M 227.463494 224.64 
L 379.645312 224.64 
" style="fill:none;stroke:#000000;stroke-linecap:square;stroke-linejoin:miter;stroke-width:0.8;"/>
   </g>
   <g id="patch_12">
    <path d="M 227.463494 7.2 
L 379.645312 7.2 
" style="fill:none;stroke:#000000;stroke-linecap:square;stroke-linejoin:miter;stroke-width:0.8;"/>
   </g>
   <g id="legend_2">
    <g id="patch_13">
     <path d="M 234.463494 219.64 
L 343.933807 219.64 
Q 345.933807 219.64 345.933807 217.64 
L 345.933807 189.28375 
Q 345.933807 187.28375 343.933807 187.28375 
L 234.463494 187.28375 
Q 232.463494 187.28375 232.463494 189.28375 
L 232.463494 217.64 
Q 232.463494 219.64 234.463494 219.64 
z
" style="fill:#ffffff;opacity:0.8;stroke:#cccccc;stroke-linejoin:miter;"/>
    </g>
    <g id="line2d_35">
     <path d="M 236.463494 195.382187 
L 256.463494 195.382187 
" style="fill:none;stroke:#1f77b4;stroke-linecap:square;stroke-width:1.5;"/>
    </g>
    <g id="line2d_36"/>
    <g id="text_29">
     <!-- Ground truth -->
     <g transform="translate(264.463494 198.882187)scale(0.1 -0.1)">
      <use xlink:href="#DejaVuSans-71"/>
      <use x="77.490234" xlink:href="#DejaVuSans-114"/>
      <use x="116.353516" xlink:href="#DejaVuSans-111"/>
      <use x="177.535156" xlink:href="#DejaVuSans-117"/>
      <use x="240.914062" xlink:href="#DejaVuSans-110"/>
      <use x="304.292969" xlink:href="#DejaVuSans-100"/>
      <use x="367.769531" xlink:href="#DejaVuSans-32"/>
      <use x="399.556641" xlink:href="#DejaVuSans-116"/>
      <use x="438.765625" xlink:href="#DejaVuSans-114"/>
      <use x="479.878906" xlink:href="#DejaVuSans-117"/>
      <use x="543.257812" xlink:href="#DejaVuSans-116"/>
      <use x="582.466797" xlink:href="#DejaVuSans-104"/>
     </g>
    </g>
    <g id="line2d_37">
     <path d="M 236.463494 210.060312 
L 256.463494 210.060312 
" style="fill:none;stroke:#ff7f0e;stroke-dasharray:5.55,2.4;stroke-dashoffset:0;stroke-width:1.5;"/>
    </g>
    <g id="line2d_38"/>
    <g id="text_30">
     <!-- Measured track -->
     <g transform="translate(264.463494 213.560312)scale(0.1 -0.1)">
      <use xlink:href="#DejaVuSans-77"/>
      <use x="86.279297" xlink:href="#DejaVuSans-101"/>
      <use x="147.802734" xlink:href="#DejaVuSans-97"/>
      <use x="209.082031" xlink:href="#DejaVuSans-115"/>
      <use x="261.181641" xlink:href="#DejaVuSans-117"/>
      <use x="324.560547" xlink:href="#DejaVuSans-114"/>
      <use x="363.423828" xlink:href="#DejaVuSans-101"/>
      <use x="424.947266" xlink:href="#DejaVuSans-100"/>
      <use x="488.423828" xlink:href="#DejaVuSans-32"/>
      <use x="520.210938" xlink:href="#DejaVuSans-116"/>
      <use x="559.419922" xlink:href="#DejaVuSans-114"/>
      <use x="600.533203" xlink:href="#DejaVuSans-97"/>
      <use x="661.8125" xlink:href="#DejaVuSans-99"/>
      <use x="716.792969" xlink:href="#DejaVuSans-107"/>
     </g>
    </g>
   </g>
  </g>
 </g>
 <defs>
  <clipPath id="pb87e56fe75">
   <rect height="217.44" width="152.181818" x="44.845313" y="7.2"/>
  </clipPath>
  <clipPath id="p6c766e7b09">
   <rect height="217.44" width="152.181818" x="227.463494" y="7.2"/>
  </clipPath>
 </defs>
</svg>
